# xmcd
#
# Track frame offsets:
#	150
#	1865
#	16005
#	46517
#	72597
#	96753
#	122537
#	151140
#	175568
#	200347
#	232183
#
# Disc length: 3371 seconds
#
# Revision: 0
# Processed by: cddbd v1.5.1PL0 Copyright (c) Steve Scherf et al.
# Submitted via: dBpowerAMP V4.0
#
DISCID=770d290b
DTITLE=Deja Blues - Killin' The Grass
DYEAR=2004
DGENRE=Blues
TTITLE0=Welcome
TTITLE1=Hideaway
TTITLE2=Unchain My Heart
TTITLE3=I Just Wanna Make Love To You
TTITLE4=Ain't No Sunshine
TTITLE5=Rock Me Baby
TTITLE6=Middle Age Blues Boogie
TTITLE7=Uhh!
TTITLE8=Give Me One Reason
TTITLE9=Red House 
TTITLE10=Peter Gunn
EXTD=Deja Blues Records
EXTT0=
EXTT1=
EXTT2=
EXTT3=
EXTT4=
EXTT5=
EXTT6=
EXTT7=
EXTT8=
EXTT9=
EXTT10=
PLAYORDER=
